<svg width="48" height="48" viewBox="0 0 48 48" fill="none" xmlns="http://www.w3.org/2000/svg">
<path d="M33.4646 22.1843C28.3071 19.1214 19.7998 18.8398 14.8764 20.3343C14.0858 20.5741 13.2497 20.1278 13.0102 19.3372C12.7706 18.5462 13.2165 17.7107 14.0077 17.4703C19.6594 15.7546 29.0548 16.0861 34.9921 19.6106C35.7033 20.0326 35.9365 20.951 35.5151 21.661C35.0932 22.3721 34.174 22.6066 33.4646 22.1843ZM33.2957 26.7208C32.9338 27.308 32.1662 27.4922 31.5798 27.1316C27.28 24.4887 20.7234 23.7231 15.6365 25.2671C14.9767 25.4665 14.2799 25.0945 14.0797 24.4362C13.8808 23.7764 14.253 23.081 14.9114 22.8804C20.7227 21.1171 27.9468 21.9711 32.8853 25.0059C33.4717 25.367 33.6562 26.1352 33.2957 26.7208ZM31.3379 31.0776C31.0504 31.5491 30.4365 31.6968 29.9667 31.4094C26.2093 29.1131 21.4802 28.5946 15.9108 29.8666C15.3741 29.9897 14.8394 29.6534 14.7169 29.1167C14.594 28.5802 14.929 28.0453 15.467 27.9228C21.5616 26.5296 26.7898 27.1291 31.007 29.7062C31.4772 29.9933 31.6253 30.6076 31.3379 31.0776ZM24.0001 8.00006C15.1636 8.00006 8 15.1635 8 23.9998C8 32.837 15.1636 39.9999 24.0001 39.9999C32.8368 39.9999 40 32.837 40 23.9998C40 15.1635 32.8368 8.00006 24.0001 8.00006Z" fill="#FEF9EF"/>
</svg>
